<svg width="450" height="315" xmlns="http://www.w3.org/2000/svg">
 <g>
  <title>background</title>
  <rect x="-1" y="-1" width="452" height="317" id="canvas_background" fill="none"/>
 </g>

 <g>
  <title>Layer 1</title>
  <g id="svg_1">
   <g id="svg_2">
    <path d="m374.4,151.2c0,-20.8 -8.4,-40 -22.4,-53.6c-13.6,-13.6 -32.8,-22.4 -53.6,-22.4c-14,0 -27.6,4 -39.2,10.8c-8.4,5.2 -16,12 -22,20c-1.6,-1.2 -3.6,-2.8 -5.2,-4c-17.6,-12.4 -38.8,-19.2 -61.2,-19.2c-26.4,0 -51.2,9.6 -70,26c-16.8,14.4 -29.2,34.4 -34.8,57.2c-17.2,2 -32.4,9.6 -44,21.2c-13.6,13.6 -22,32 -22,52.8c0,20.4 8.4,39.2 22,52.8c13.6,13.6 32,22 52.8,22l201.2,0c24,-0.4 45.2,-9.6 60.4,-25.2c15.2,-15.2 24.8,-36.4 24.8,-60c0,-10 -1.6,-20 -5.2,-28.8c5.2,-6 9.6,-12.8 12.4,-20c4,-9.2 6,-19.6 6,-29.6zm-53.6,125.6c-11.6,11.6 -27.6,18.8 -45.6,18.8l-199.6,0c-15.2,-1.6 -28.4,-7.6 -38.4,-17.6c-9.6,-9.6 -16,-23.2 -16,-38s6,-28.4 16,-38c9.6,-9.6 23.2,-16 38,-16c1.6,0 3.6,-0.4 4.8,-1.2c2.4,-1.6 4,-4 4.4,-6.8c3.2,-21.2 14,-39.6 29.2,-52.8c15.2,-13.2 35.2,-20.8 56.8,-20.8c18,0 35.2,5.6 49.6,15.6c11.2,7.6 20.8,18.4 27.2,30.8c-2.4,0.8 -4.4,1.6 -6.4,2.8c-10.8,4.8 -20.8,12 -28.8,21.2c-3.6,4.4 -3.2,10.8 0.8,14.4c4.4,3.6 10.8,3.2 14.4,-0.8c6,-6.8 13.6,-12.4 21.6,-16c8,-3.6 17.2,-5.6 26.4,-5.6c17.6,0 34,7.2 45.6,18.8c11.6,11.6 18.8,27.6 18.8,45.6s-7.2,34 -18.8,45.6zm29.2,-104.4c-1.2,2.8 -2.4,5.2 -4,8c-2.8,-4 -6,-7.6 -9.2,-10.8c-15.2,-15.2 -36.4,-24.8 -60,-24.8c-2.4,0 -5.2,0 -7.6,0.4c-4,-9.2 -9.6,-17.2 -16,-24.8c4.4,-6.8 10.4,-12.4 17.2,-16.8c8.4,-5.2 18.4,-8 28.8,-8c15.2,0 29.2,6 39.2,16s16,24 16,39.2c0,7.6 -1.6,14.8 -4.4,21.6z" fill="#FFFFFF" id="svg_3"/>
   </g>
  </g>
  <g id="svg_4">
   <g id="svg_5">
    <path d="m406,44c-4,-4 -10.4,-4 -14.4,0l-22,22c-4,4 -4,10.4 0,14.4s10.4,4 14.4,0l22,-22c4,-4 4,-10.4 0,-14.4z" fill="#FFFFFF" id="svg_6"/>
   </g>
  </g>
  <g id="svg_7">
   <g id="svg_8">
    <path d="m299.2,0c-5.6,0 -10.4,4.4 -10.4,10l0,31.2c0,5.6 4.8,10.4 10.4,10.4c5.6,0 10.4,-4.8 10.4,-10.4l0,-30.8c0,-5.6 -4.8,-10.4 -10.4,-10.4z" fill="#FFFFFF" id="svg_9"/>
   </g>
  </g>
  <g id="svg_10">
   <g id="svg_11">
    <path d="m228.4,66l-22,-22c-3.6,-4 -10.4,-4 -14.4,0s-4,10.4 0,14.4l22,22c4,4 10.4,4 14.4,0s4,-10.4 0,-14.4z" fill="#FFFFFF" id="svg_12"/>
   </g>
  </g>
  <g id="svg_13">
   <g id="svg_14">
    <path d="m440,140.8l-30.8,0c-5.6,0 -10.4,4.8 -10.4,10.4s4.8,10.4 10.4,10.4l30.8,0c5.6,0 10.4,-4.8 10.4,-10.4c0,-6 -4.8,-10.4 -10.4,-10.4z" fill="#FFFFFF" id="svg_15"/>
   </g>
  </g>
  <g id="svg_16">
   <g id="svg_17">
    <path d="m406,243.6l-22,-22c-4,-4 -10.4,-4 -14.4,0s-4,10.4 0,14.4l22,22c4,4 10.4,4 14.4,0s4,-10.4 0,-14.4z" fill="#FFFFFF" id="svg_18"/>
   </g>
  </g>
 </g>
</svg>