<svg version="1" xmlns="http://www.w3.org/2000/svg" width="682.667" height="682.667" viewBox="0 0 512.000000 512.000000"><path d="M249.5 20.7c-2.5.7-7.3 4-10.4 7.3-1.2 1.4-6.2 6.7-11 11.9-4.7 5.1-9.9 10.8-11.6 12.5-23.3 25-24.9 27.1-26.1 33.3-1.6 8.3 3.6 17.8 11.6 21.2 4.8 2.1 6.1 2.1 52.6 2.1 45.3-.1 47.8-.2 51.5-2 10.7-5.5 14.7-18.1 8.7-28-1.9-3.2-10.5-13.3-37.3-43.9-12.1-13.9-17.9-16.9-28-14.4zM395.7 79.7c-.1 0-8.1.4-17.7.8-9.6.3-22.4.8-28.3 1-5.9.3-12.6.9-14.8 1.5-9.7 2.6-15.7 14.3-12.8 24.7 1.2 4.4 4.3 7.8 35.6 39.1 18.8 18.8 35.5 34.7 37 35.3 10.4 4.1 21.7 0 26.1-9.3 1.9-4.2 2.5-8.6 3.7-30.3.3-5 .7-10.6 1-12.5.7-6 1.9-26.3 1.8-31.1-.2-8.5-6-16.2-14.3-18.7-2.7-.8-16.5-1.3-17.3-.5zM94.8 82.5c-5.5 1.8-9.6 5.3-12 9.8-1.8 3.5-2.1 5.8-2 13.2.1 4.9.4 10.5.6 12.5.3 1.9.8 8.2 1.1 14 .4 5.8.9 12.7 1.1 15.5.2 2.7.6 9 .9 13.8.7 10 1.5 12.7 5.2 17.6 4.9 6.4 15.1 8.9 23 5.6 4.7-2 69.5-66.3 71.9-71.4 3.9-8.1 2.5-16.4-3.5-22.8-4.8-5.1-8.6-6-27.1-6.7-26.8-1.1-44.6-1.8-50.1-2.1-3.1-.1-7.2.3-9.1 1zM240.9 117.4c-.2.2-2.6.6-5.4.9-11.3 1.3-26.8 6.2-40 12.8-25.9 13-50.8 37.6-63.7 63.3-3.4 6.8-9.5 22-10.2 25.7-.2 1.3-.9 4.4-1.4 6.9-3.8 16.7-3.6 37.8.7 56 2 9 5.2 17.7 10 27.5 11.3 23.1 28.2 42.3 49.9 56.8 8.2 5.5 24.1 13.7 26.5 13.7.7 0 1.7.4 2.2.8 1.4 1.2 6.8 2.8 17 5.3 10.3 2.5 34.9 3.5 45 1.8 39.3-6.3 73.8-28.6 95.9-61.9 26.9-40.4 30.5-86.4 10-129.6-18.5-39-57.5-70.1-97.9-77.9-1.6-.3-4.1-.8-5.5-1.1-3.2-.6-32.5-1.6-33.1-1zM83.8 190c-3.9.7-9.2 3.9-14.4 8.7-1.7 1.5-6 5.3-9.5 8.3-3.5 3-6.6 5.7-6.9 6-.3.3-3.6 3.2-7.5 6.5-3.8 3.3-7.6 6.7-8.5 7.5-.9.8-4.4 4-7.9 7-7.1 6.2-10 11.1-10.5 17.5-.3 5.2 2.9 12.6 7 16.2 2.5 2.2 18.2 16.5 26 23.8 11.7 11 23 21.2 24.8 22.5 4 2.8 10.6 3.8 16 2.4 5.8-1.5 12-7.1 13.7-12.3 1.4-4.3 2-92.2.6-98.6-2.1-10.4-12.4-17.3-22.9-15.5zM417.1 190.2c-6.9 1.2-11.7 5-14.8 11.8-1.3 3-1.6 10-1.5 51.5 0 52.6-.1 52.3 5.9 58.1 5.6 5.3 14.5 7.1 21.3 4.2 3.4-1.4 5.7-3.2 19.5-15.3 3.3-2.9 13.1-11.4 21.8-19 17.6-15.3 20.1-18.7 20-27.2-.1-5.3-3.6-13.2-6.7-15-.8-.4-6.9-6-13.6-12.3-6.8-6.3-12.8-12-13.4-12.5-8.3-7.5-22.2-20.1-22.6-20.6-2.3-2.7-10.6-4.7-15.9-3.7zM98.7 323.4c-6.8 2-13 8.5-14.3 14.9-.2 1.2-.6 5.8-.9 10.2-.3 4.4-.7 10.7-1 14-.2 3.3-.7 10-1 15-.3 4.9-.8 11.9-1.1 15.5-1.1 13.2-1.1 15.6.2 20 1.5 5.2 5.8 10 11 12.5 3.7 1.8 13.9 1.8 52.4 0 29.3-1.4 29.6-1.4 35.3-6.5 6.4-5.6 8.4-16 4.4-23.5-2.3-4.5-67.9-69.5-71.7-71.2-4.7-1.9-8.7-2.2-13.3-.9zM397.5 323.7c-1.1.3-2.9 1.2-4 1.9-5 3.4-67.9 67.3-69.7 70.8-4 7.8-1.5 18.7 5.4 23.9 4.3 3.3 9.2 4.5 20.8 5.1 10.2.6 23.1 1.5 29.5 2.1 13.3 1.2 27.1 1.6 30.9 1.1 3.2-.5 5.7-1.8 8.9-4.7 7.1-6.1 7.5-8.5 6.3-34.9-.3-8-.8-21-1.1-29-.6-17.5-1.2-22.6-3.2-26.4-4.2-8.2-14.2-12.3-23.8-9.9zM204 401.2c-5.4 1.4-11.6 8.1-13 13.9-1.4 5.5-.6 11.4 1.8 15.1 1.6 2.4 6.8 8.5 17.6 20.8 2.7 3 6.1 6.9 7.5 8.5 18.6 21.6 22.6 25.8 26.6 27.6 6.7 3.1 15.5 2 20.7-2.7 1.9-1.7 9.1-9.4 25.3-26.8 1.7-1.8 7.3-7.9 12.5-13.5 11.8-12.7 15-18.2 14.5-25-.6-8.3-5.6-15-13.1-17.6-4.6-1.5-94.6-1.8-100.4-.3z"/></svg>