<svg width="256" height="256" xmlns="http://www.w3.org/2000/svg" xmlns:xlink="http://www.w3.org/1999/xlink"><defs><path id="a" d="M128 0L0 128l128 128 128-128z"/></defs><g fill="none" fill-rule="evenodd"><use fill="#00933C" xlink:href="#a"/><path d="M112.102 145.71c0 5.827 1.569 10.583 4.706 14.269 3.138 3.685 7.122 5.528 11.953 5.528 4.732 0 8.455-1.78 11.17-5.342 2.714-3.56 4.07-8.18 4.07-13.858 0-6.325-1.543-11.169-4.631-14.53-3.088-3.362-6.873-5.043-11.356-5.043-3.635 0-6.848 1.096-9.637 3.287-4.183 3.237-6.275 8.467-6.275 15.688zm29.957-46.767c0-1.743-.672-3.66-2.017-5.753-2.29-3.386-5.752-5.08-10.384-5.08-6.923 0-11.854 3.885-14.792 11.655-1.594 4.283-2.69 10.608-3.287 18.975 2.64-3.137 5.702-5.428 9.189-6.873 3.486-1.444 7.47-2.166 11.953-2.166 9.612 0 17.494 3.262 23.645 9.786 6.15 6.525 9.226 14.867 9.226 25.027 0 10.11-3.013 19.026-9.04 26.745-6.026 7.72-15.39 11.58-28.09 11.58-13.646 0-23.706-5.703-30.181-17.108-5.03-8.915-7.545-20.42-7.545-34.515 0-8.267.348-14.99 1.045-20.17 1.246-9.215 3.661-16.884 7.247-23.01 3.088-5.23 7.135-9.438 12.14-12.626 5.005-3.187 10.994-4.781 17.967-4.781 10.06 0 18.08 2.577 24.056 7.732 5.976 5.155 9.338 12.015 10.085 20.582H142.06z" fill="#FFF"/></g></svg>